<?xml version="1.0" encoding="UTF-8" standalone="no"?>
<svg
   xmlns:dc="http://purl.org/dc/elements/1.1/"
   xmlns:cc="http://creativecommons.org/ns#"
   xmlns:rdf="http://www.w3.org/1999/02/22-rdf-syntax-ns#"
   xmlns:svg="http://www.w3.org/2000/svg"
   xmlns="http://www.w3.org/2000/svg"
   xmlns:sodipodi="http://sodipodi.sourceforge.net/DTD/sodipodi-0.dtd"
   xmlns:inkscape="http://www.inkscape.org/namespaces/inkscape"
   width="191.98541mm"
   height="110.9019mm"
   viewBox="0 0 191.98541 110.9019"
   version="1.1"
   id="svg1558"
   inkscape:version="1.0 (4035a4f, 2020-05-01)"
   sodipodi:docname="Stars.svg">
  <defs
     id="defs1552" />
  <sodipodi:namedview
     fit-margin-bottom="0"
     fit-margin-right="0"
     fit-margin-left="0"
     fit-margin-top="0"
     id="base"
     pagecolor="#112e63"
     bordercolor="#666666"
     borderopacity="1.0"
     inkscape:pageopacity="1"
     inkscape:pageshadow="2"
     inkscape:zoom="1.6130714"
     inkscape:cx="254.11799"
     inkscape:cy="114.80123"
     inkscape:document-units="mm"
     inkscape:current-layer="layer1"
     inkscape:document-rotation="0"
     showgrid="false"
     inkscape:window-width="1280"
     inkscape:window-height="755"
     inkscape:window-x="0"
     inkscape:window-y="23"
     inkscape:window-maximized="0" />
  <metadata
     id="metadata1555">
    <rdf:RDF>
      <cc:Work
         rdf:about="">
        <dc:format>image/svg+xml</dc:format>
        <dc:type
           rdf:resource="http://purl.org/dc/dcmitype/StillImage" />
        <dc:title></dc:title>
      </cc:Work>
    </rdf:RDF>
  </metadata>
  <g
     transform="translate(-6.4325546,-12.183826)"
     inkscape:label="Ebene 1"
     inkscape:groupmode="layer"
     id="layer1">
    <path
       id="rect2127"
       style="fill:#cfb38c;fill-opacity:1;stroke-width:3.6"
       d="m 48.169699,12.183826 c -0.09242,0 -0.202026,0.1374 -0.27078,0.411342 -0.12388,0.4936 -0.344366,0.53431 -0.77722,0.14262 -0.384862,-0.348298 -0.56798,-0.203476 -0.322458,0.255286 0.10068,0.1882 0.18294,0.577654 0.18294,0.866098 0,0.309974 0.10412,0.564584 0.254248,0.622182 0.15672,0.0602 0.254248,0.317294 0.254248,0.671794 0,0.71728 0.296536,0.745676 0.53847,0.05168 0.16736,-0.480098 0.229082,-0.513838 0.753444,-0.415476 0.652494,0.1224 0.67827,0.07426 0.286284,-0.524002 -0.227594,-0.347356 -0.244586,-0.497502 -0.08474,-0.753438 0.278506,-0.44596 0.257286,-0.492998 -0.223244,-0.492994 -0.338668,0 -0.423746,-0.085 -0.423746,-0.42375 0,-0.27394 -0.075,-0.411342 -0.16744,-0.411342 z m 31.246672,0.51056 c -0.13136,0.0118 -0.284576,0.15642 -0.408242,0.427884 -0.203518,0.44668 -0.474176,0.479912 -1.249536,0.154 -0.410344,-0.1724 -0.387668,0.257386 0.04238,0.804084 0.386228,0.491024 0.426958,0.814318 0.1385,1.102778 -0.29501,0.29502 -0.0072,0.480584 0.375168,0.241844 0.490432,-0.30626 0.671794,-0.250702 0.671794,0.20464 0,0.54048 0.17034,0.964216 0.344164,0.856796 0.07658,-0.0474 0.22668,-0.351252 0.33383,-0.675926 0.1701,-0.515424 0.266034,-0.59118 0.753444,-0.59118 0.54648,0 0.557942,-0.0156 0.54157,-0.719338 -0.0092,-0.395818 0.0188,-0.833882 0.06304,-0.973582 0.0562,-0.1776 -0.02152,-0.237824 -0.258382,-0.200508 -0.90069,0.1418 -1.015984,0.1126 -1.069706,-0.265614 -0.03652,-0.25715 -0.14666,-0.377588 -0.278018,-0.365872 z m 64.314619,6.74902 c -0.0787,0.05905 -0.22598,0.209988 -0.39688,0.568442 -0.24524,0.514238 -0.34397,0.581522 -0.71727,0.487822 -0.39496,-0.0992 -0.42298,-0.0708 -0.32556,0.317294 0.0598,0.23804 0.0266,0.474434 -0.0754,0.537438 -0.1002,0.062 -0.26588,0.268202 -0.36794,0.458882 -0.17674,0.330264 -0.1523,0.341936 0.50747,0.230478 0.67925,-0.1148 0.69246,-0.1078 0.69246,0.377238 0,0.86314 0.41952,1.001368 0.59635,0.19636 0.0968,-0.441096 0.17924,-0.512836 0.5209,-0.447516 0.45574,0.0872 0.5292,-0.17586 0.21393,-0.76481 -0.1654,-0.309202 -0.12392,-0.414306 0.29663,-0.759644 l 0.48886,-0.401008 -0.59325,0.05168 c -0.53573,0.0466 -0.59753,0.0056 -0.64595,-0.414448 -0.036,-0.312738 -0.11557,-0.497263 -0.1943,-0.438214 z m 34.61475,-5.327918 c -0.063,-0.011 -0.1386,0.02486 -0.22946,0.10024 -0.1314,0.109 -0.23978,0.259196 -0.23978,0.332798 0,0.0736 -0.26624,0.53857 -0.5922,1.033526 -0.58196,0.883662 -0.73306,1.331188 -0.44958,1.331188 0.0786,0 0.28102,-0.15274 0.44958,-0.339 0.41032,-0.453396 0.66806,-0.426746 0.90536,0.09406 0.32312,0.709158 0.49614,0.329782 0.45476,-0.997358 -0.0332,-1.068402 -0.1094,-1.522692 -0.29868,-1.555458 z M 94.708945,47.689485 c -0.07724,-0.01363 -0.15316,0.14812 -0.25218,0.498162 -0.1893,0.66918 -0.200014,0.677244 -0.914668,0.619084 -0.817178,-0.0664 -0.812934,0.14942 0.0114,0.575674 0.453394,0.234458 0.492612,0.318584 0.393774,0.845428 -0.1167,0.622058 0.07436,0.766668 0.43615,0.33073 0.255196,-0.307484 0.572018,-0.322538 1.010792,-0.04858 0.447538,0.2795 0.568664,0.10194 0.313156,-0.458888 -0.200162,-0.439298 -0.17604,-0.497786 0.416512,-0.995288 0.346346,-0.290778 0.629422,-0.586428 0.629422,-0.656288 -1.4e-5,-0.213382 -0.572584,-0.13112 -0.920876,0.1323 -0.48813,0.369198 -0.751936,0.303814 -0.876432,-0.217044 -0.0955,-0.39959 -0.169766,-0.611652 -0.247016,-0.625284 z M 112.21547,24.416018 c -0.1622,-0.016 -0.36932,0.38653 -0.37208,0.782384 -0.004,0.522336 -0.2518,0.615828 -0.83508,0.314188 -0.6836,-0.3535 -0.78892,-0.07954 -0.1902,0.49403 0.54984,0.5268 0.52374,0.801496 -0.1012,1.086236 -0.58002,0.264282 -0.41652,0.612886 0.28732,0.612886 0.4426,0 0.58718,0.07794 0.63044,0.338994 0.1486,0.896362 0.47514,1.047946 0.63976,0.296626 0.179,-0.817024 0.226,-0.888836 0.57672,-0.888836 0.37076,0 0.45612,-0.328286 0.1622,-0.622184 -0.129,-0.129 -0.0554,-0.28048 0.25424,-0.524002 0.54764,-0.43078 0.57874,-0.783188 0.0548,-0.624248 -0.65706,0.1994 -0.69648,0.1766 -0.81028,-0.475424 -0.0612,-0.350282 -0.1654,-0.691456 -0.23152,-0.757576 -0.0206,-0.02062 -0.042,-0.03078 -0.0652,-0.03308 z m 9.81682,19.040051 c -0.0676,0.0154 -0.1148,0.09424 -0.1148,0.245978 0,0.1398 -0.1408,0.395208 -0.31316,0.56741 -0.43126,0.43126 -0.3053,1.437884 0.1612,1.289844 0.1734,-0.055 0.45008,-0.02158 0.61494,0.07442 0.48424,0.281902 0.58696,0.215064 0.47232,-0.306954 -0.062,-0.282162 -0.0314,-0.538988 0.0714,-0.602552 0.26586,-0.1642 0.21654,-0.42891 -0.0796,-0.42891 -0.142,0 -0.33006,-0.19082 -0.41858,-0.423746 -0.1102,-0.289666 -0.28108,-0.44114 -0.39378,-0.415482 z M 9.0904673,44.083498 c -0.152418,-0.06532 -0.377566,0.359472 -0.38344,0.743108 -0.0028,0.1862 -0.07334,0.446432 -0.1571,0.57877 -0.12978,0.205042 -0.215932,0.19884 -0.583946,-0.04236 -0.628294,-0.41168 -0.782378,-0.353286 -0.782378,0.297656 0,0.473478 -0.07082,0.59152 -0.381376,0.63562 -0.514096,0.073 -0.484584,0.521742 0.04238,0.644922 0.326776,0.0764 0.435468,0.223806 0.476456,0.64389 0.04718,0.483536 0.09956,0.532284 0.466122,0.440282 0.390816,-0.0982 0.41238,-0.06352 0.41238,0.649054 0,0.66664 0.09186,0.977722 0.288354,0.977722 0.03436,0 0.214782,-0.355162 0.401008,-0.789618 0.257682,-0.601138 0.385254,-0.743348 0.535368,-0.593248 0.33274,0.33276 0.6124357,0.221218 0.6686917,-0.26768 0.04628,-0.40214 0.1448,-0.477752 0.718302,-0.550872 0.89328,-0.1138 0.958896,-0.445062 0.1323,-0.667662 -0.58132,-0.1566 -0.65541,-0.231198 -0.586008,-0.59428 0.07028,-0.36766 0.02444,-0.411808 -0.4030777,-0.38137 -0.455718,0.0324 -0.488088,-0.01 -0.575674,-0.762746 -0.05102,-0.438478 -0.15112,-0.854958 -0.222208,-0.926042 -0.02078,-0.02078 -0.044366,-0.02581 -0.06614,-0.03514 z M 196.82575,30.857698 c -0.1064,0.0118 -0.22038,0.16552 -0.31626,0.457856 -0.0916,0.2794 -0.1826,0.533484 -0.20154,0.564304 -0.02,0.0308 -0.1934,-0.02932 -0.38758,-0.13332 -0.31708,-0.1696 -0.35346,-0.14218 -0.35346,0.264584 0,0.24912 -0.1252,0.544766 -0.27904,0.657324 -0.31258,0.228558 -0.1786,0.594276 0.21806,0.594276 0.20046,0 0.2314,0.11784 0.1406,0.531236 -0.1104,0.502962 -0.0936,0.525606 0.31214,0.423746 0.37864,-0.095 0.44242,-0.0439 0.54672,0.442352 0.0648,0.30262 0.1536,0.610848 0.1974,0.685228 0.1264,0.21416 0.53216,-0.207084 0.59014,-0.61288 0.041,-0.28628 0.1574,-0.361692 0.51882,-0.336932 0.50314,0.0344 0.64668,-0.374448 0.26562,-0.755512 -0.1526,-0.1528 -0.1244,-0.28194 0.1198,-0.5519 0.2498,-0.276024 0.27846,-0.41601 0.1322,-0.650092 -0.1026,-0.1642 -0.1478,-0.503804 -0.1002,-0.753442 0.0958,-0.501482 -0.1312,-0.595488 -0.4651,-0.19326 -0.27902,0.336216 -0.5551,0.236008 -0.66766,-0.240814 -0.0648,-0.27459 -0.1644,-0.404506 -0.27078,-0.392742 z M 30.231587,24.54039 c -0.04528,-0.06037 -0.13436,0.08916 -0.13436,0.25735 0,0.1762 -0.09882,0.456284 -0.220144,0.622184 -0.20055,0.274282 -0.24121,0.27686 -0.444416,0.03204 -0.335666,-0.404464 -0.721036,-0.338228 -0.658358,0.11266 0.04388,0.315542 -0.04202,0.39497 -0.503326,0.46509 -0.625296,0.095 -0.808784,0.391838 -0.290424,0.470254 1.085506,0.1642 1.144466,0.203942 1.04283,0.7121 -0.08918,0.445902 -0.05854,0.486136 0.354504,0.457852 0.33355,-0.0228 0.468192,0.05728 0.511594,0.306958 0.15982,0.919242 0.439694,0.955844 0.631486,0.08268 0.1124,-0.51172 0.315844,-0.64697 0.507466,-0.33693 0.05756,0.0932 0.218142,0.1695 0.356562,0.1695 0.19494,0 0.227008,-0.13114 0.14264,-0.580844 -0.10514,-0.560478 -0.08934,-0.582184 0.45785,-0.634588 0.766964,-0.0734 0.72097,-0.380228 -0.06718,-0.445448 -0.666808,-0.0552 -0.74805,-0.18198 -0.459918,-0.72037 0.20305,-0.379422 -0.13518,-0.469386 -0.477494,-0.12712 -0.24737,0.247358 -0.414624,0.09792 -0.440282,-0.392742 -0.015,-0.286826 -0.23355,-0.349985 -0.309024,-0.450618 z M 142.75928,42.485804 c -0.133,-0.0086 -0.29584,0.1582 -0.41652,0.504364 -0.0974,0.2794 -0.29578,0.508492 -0.44028,0.508492 -0.1948,0 -0.25148,0.15122 -0.22014,0.584978 0.036,0.498782 0.0944,0.57203 0.39376,0.497132 0.20428,-0.051 0.44266,0.02274 0.57052,0.17674 0.323,0.389192 0.46992,0.325412 0.55294,-0.238744 0.0404,-0.277012 0.012,-0.601938 -0.063,-0.72037 -0.0752,-0.1186 -0.1382,-0.463164 -0.1396,-0.765846 -0.002,-0.354108 -0.1048,-0.53812 -0.2377,-0.546736 z m -36.03075,31.398668 c -0.115,0.0114 -0.25814,0.217096 -0.37104,0.610816 -0.144,0.501762 -0.1952,0.531946 -0.72244,0.43305 -0.6137,-0.1152 -0.6634,-0.05644 -0.38654,0.460952 0.1336,0.249718 0.1248,0.406854 -0.0342,0.598412 -0.1774,0.2138 -0.1654,0.287386 0.0672,0.417546 0.23304,0.1304 0.24858,0.231028 0.091,0.576712 -0.25404,0.557578 -0.0548,0.719682 0.3917,0.318324 0.35542,-0.319542 0.36254,-0.319394 0.61392,0.05684 0.38632,0.578342 0.77456,0.500776 0.63666,-0.12712 -0.1074,-0.489384 -0.0896,-0.507466 0.48472,-0.507466 0.73728,0 0.90954,-0.236938 0.45476,-0.626316 -0.1902,-0.1628 -0.34624,-0.42201 -0.34624,-0.576712 0,-0.1548 -0.1528,-0.3213 -0.339,-0.369998 -0.26118,-0.0684 -0.339,-0.23085 -0.339,-0.711068 0,-0.382534 -0.31663,-0.565485 -0.20152,-0.553974 z m 88.93465,-2.583858 c -0.145,-0.02008 -0.26664,0.07784 -0.26664,0.305922 0,0.1738 -0.1434,0.4971 -0.31832,0.71934 -0.25116,0.319278 -0.30002,0.590682 -0.23256,1.292944 0.0932,0.970958 0.3422,1.135042 0.76792,0.50746 0.22418,-0.330438 0.30504,-0.352996 0.61082,-0.1695 0.5916,0.355198 0.69556,0.249456 0.69556,-0.707966 0,-0.779744 -0.053,-0.93671 -0.3483,-1.03043 -0.1916,-0.0608 -0.41782,-0.293968 -0.50332,-0.518832 -0.0914,-0.24076 -0.26008,-0.378858 -0.40516,-0.398938 z M 72.894622,46.581305 c 0,-0.165409 -0.337418,0.233442 -0.458884,0.58808 -0.249638,0.728878 -0.324256,0.776482 -0.844396,0.5395 -0.698002,-0.318038 -0.860916,0.0158 -0.346228,0.709004 0.418936,0.564162 0.435064,0.735416 0.154,1.642274 -0.15262,0.492444 0.188834,0.505862 0.697632,0.0279 l 0.375174,-0.352436 0.12196,0.564308 c 0.217852,1.008 0.42873,1.022414 0.83302,0.05478 0.2287,-0.547338 0.259576,-0.563276 0.75241,-0.377238 0.700824,0.26452 0.833856,0.05496 0.366904,-0.576706 -0.377618,-0.510762 -0.380636,-0.546 -0.1075,-1.118278 l 0.282158,-0.59118 -0.602552,0.11266 c -0.635632,0.118845 -0.640694,0.11388 -0.842322,-0.803052 -0.06956,-0.316342 -0.381376,-0.254196 -0.381376,-0.419614 z M 171.2666,34.614549 c 0.1223,0.0092 -0.26516,0.253566 -0.39172,0.629418 -0.23304,0.692102 -0.47236,0.79541 -1.01594,0.43925 -0.45842,-0.30036 -0.93122,-0.356192 -0.93122,-0.10956 0,0.0884 0.27008,0.367084 0.60048,0.619084 0.34938,0.266498 0.56242,0.553804 0.5085,0.68626 -0.051,0.1252 -0.1394,0.341158 -0.1954,0.479562 -0.067,0.1656 0.0414,0.305388 0.3173,0.41031 0.33322,0.1266 0.4026,0.24865 0.33692,0.592212 -0.1124,0.587898 0.0912,1.32442 0.34314,1.242298 0.113,-0.0368 0.28958,-0.404304 0.39274,-0.816488 0.187,-0.746918 0.1908,-0.749094 0.88986,-0.703828 0.828,0.0536 0.95828,-0.292202 0.27802,-0.737944 -0.51862,-0.339822 -0.53028,-0.520722 -0.0578,-0.903304 0.39984,-0.323776 0.29384,-0.73652 -0.1696,-0.660422 -0.45536,0.0748 -0.70486,-0.18324 -0.70486,-0.730704 0,-0.334572 -0.32271,-0.445315 -0.2005,-0.43615 z M 38.949593,47.918038 c -0.13398,-0.0082 -0.29393,0.15406 -0.433048,0.489892 -0.19524,0.471338 -0.255836,0.49875 -0.867134,0.401008 -0.690632,-0.1104 -0.855754,0.0717 -0.40411,0.446484 0.288984,0.239818 0.337726,0.774868 0.08476,0.931212 -0.329232,0.20348 -0.16214,0.40235 0.38137,0.454748 0.44313,0.0428 0.55971,0.13566 0.600482,0.476458 0.12382,1.035102 0.420408,1.136098 0.715202,0.242882 0.15236,-0.461662 0.266128,-0.577084 0.479556,-0.48886 0.15366,0.0636 0.424858,0.15706 0.602546,0.20774 0.334894,0.0956 0.3348,0.08402 -0.0114,-1.005624 -0.0573,-0.1804 0.0683,-0.385338 0.34933,-0.569478 0.561344,-0.367798 0.60272,-0.83458 0.05788,-0.651124 -0.20955,0.0706 -0.571252,0.1329 -0.804084,0.1385 -0.356394,0.008 -0.431784,-0.07732 -0.476458,-0.540534 -0.03342,-0.34646 -0.14094,-0.52506 -0.274918,-0.533298 z m 128.864447,5.45044 c -0.10634,0 -0.22194,0.19316 -0.31728,0.596344 -0.0928,0.392038 -0.26794,0.660544 -0.46508,0.7121 -0.39252,0.1026 -0.39092,0.286936 0.014,1.141016 0.1754,0.370782 0.2806,0.736298 0.23358,0.812354 -0.1238,0.200344 0.0724,0.630456 0.28732,0.630456 0.1008,0 0.26228,-0.229098 0.35968,-0.508498 0.1288,-0.369538 0.285,-0.508498 0.5736,-0.508498 0.5925,0 0.61972,-0.210746 0.12,-0.944642 -0.24846,-0.364822 -0.49352,-0.95261 -0.54364,-1.305348 -0.0584,-0.411072 -0.15506,-0.625284 -0.2615,-0.625284 z M 68.739632,74.039084 c 0,-0.107236 -0.248666,0.15562 -0.418582,0.56224 -0.270684,0.647844 -0.44995,0.727102 -0.772044,0.339 -0.296692,-0.3575 -0.738244,-0.328024 -0.633554,0.04238 0.223164,0.7894 0.218106,0.798624 -0.45475,0.886766 -1.123082,0.1472 -0.839,0.669618 0.367934,0.676958 0.471324,0.002 0.486834,0.33 0.04238,0.895038 -0.532526,0.677 -0.417608,0.881808 0.267684,0.477494 0.731784,-0.431764 0.917772,-0.346726 0.917772,0.418576 0,0.837718 0.436016,0.765318 0.57361,-0.09508 0.12386,-0.7745 0.461122,-0.889006 0.750338,-0.254248 0.282368,0.619722 0.601006,0.538558 0.499194,-0.12712 -0.11222,-0.733758 -0.0054,-0.97253 0.435118,-0.975652 0.464408,-0.004 0.90668,-0.27568 0.731738,-0.450616 -0.07318,-0.0732 -0.433442,-0.12536 -0.799952,-0.11576 -0.366506,0.01 -0.665592,-0.016 -0.665592,-0.05684 0,-0.0408 0.19348,-0.32941 0.43098,-0.640788 0.501142,-0.657018 0.312282,-0.91512 -0.311092,-0.424784 -0.641594,0.504682 -0.797882,0.421292 -0.797882,-0.42581 0,-0.45611 -0.1633,-0.624506 -0.1633,-0.731742 z M 134.85725,69.97646 c 0.0824,-0.107087 -0.21426,0.218584 -0.153,0.596346 0.0794,0.489362 0.026,0.625438 -0.33176,0.859896 -0.39184,0.256762 -0.40336,0.301422 -0.156,0.574642 0.1476,0.163 0.26768,0.499496 0.26768,0.748274 0,0.507698 0.25554,0.580168 0.68316,0.19326 0.2604,-0.23566 0.31324,-0.220038 0.56844,0.1695 0.38522,0.587956 0.61184,0.537712 0.61184,-0.13642 v -0.001 c 0,-0.438858 0.0942,-0.607874 0.42272,-0.757576 0.47556,-0.216678 0.55066,-0.501126 0.1706,-0.646986 -0.1916,-0.0736 -0.22772,-0.257126 -0.1478,-0.756544 0.0836,-0.52234 0.052,-0.659394 -0.151,-0.659394 -0.1408,0 -0.38074,0.19 -0.5333,0.422714 -0.36124,0.55136 -0.52202,0.534808 -0.77824,-0.08372 -0.152,-0.36713 -0.55571,-0.415918 -0.47336,-0.522966 z M 25.396931,69.32872 c -0.0684,0.0148 -0.15278,0.06604 -0.251146,0.15504 -0.16696,0.151 -0.42109,0.222172 -0.579814,0.16124 -0.23313,-0.0894 -0.274796,-0.0102 -0.239776,0.448554 0.02464,0.323253 -0.04494,0.586173 -0.16536,0.626313 -0.33462,0.1116 -0.23829,0.54881 0.12092,0.54881 0.18076,0 0.375486,0.0763 0.43305,0.1695 0.15302,0.2476 0.5198,0.20667 0.761708,-0.0847 0.11594,-0.1398 0.403892,-0.25322 0.639752,-0.25322 0.42201,0 0.42373,-0.006 0.1137,-0.3483 -0.259488,-0.28674 -0.278722,-0.405651 -0.1106,-0.674891 0.274738,-0.439924 0.26009,-0.501264 -0.12402,-0.501264 -0.18076,0 -0.378972,-0.08064 -0.440282,-0.17984 -0.03688,-0.0597 -0.08974,-0.08206 -0.15814,-0.06718 z M 156.81075,84.884682 c -0.1895,-0.06316 -0.2343,0.17092 -0.1592,0.64078 0.065,0.40667 0.0336,0.70019 -0.0826,0.77205 -0.33226,0.20534 -0.1994,0.56414 0.25012,0.67696 0.40448,0.1016 0.42832,0.15976 0.32348,0.78031 -0.0946,0.56036 -0.0662,0.67076 0.1716,0.67076 0.1566,0 0.3244,-0.15274 0.3731,-0.33899 0.101,-0.38648 0.3544,-0.42328 0.97254,-0.1416 0.57886,0.26374 0.7285,0.0653 0.38654,-0.51366 -0.28792,-0.48742 -0.1506,-0.86817 0.31214,-0.86817 0.1096,0 0.2988,-0.12096 0.42064,-0.26768 0.28424,-0.34248 -0.018,-0.56356 -0.61496,-0.44959 -0.35,0.067 -0.41238,0.0138 -0.41238,-0.3545 0,-0.59816 -0.33292,-0.75057 -0.68626,-0.31419 -0.29298,0.3618 -0.29362,0.36169 -0.71934,0.0269 -0.24244,-0.19072 -0.41736,-0.29819 -0.53536,-0.31936 z m -46.8338,33.734198 c -0.0724,-0.0724 -0.21853,0.0954 -0.25941,0.21188 -0.0409,0.1164 -0.15914,0.43993 -0.26252,0.71933 l -0.1881,0.5085 -0.39377,-0.49093 -0.39378,-0.48989 -0.11988,1.12035 c -0.066,0.61643 -0.22537,1.2085 -0.3545,1.31568 -0.12914,0.1072 -0.23461,0.30564 -0.23461,0.44132 0,0.186 0.1244,0.21947 0.50746,0.1354 0.43364,-0.0952 0.5085,-0.0615 0.5085,0.23047 0,0.52102 0.35038,0.62638 0.67076,0.20154 l 0.28525,-0.37827 0.30489,0.46509 c 0.26421,0.40304 0.32544,0.42741 0.45992,0.18706 0.0854,-0.1526 0.1335,-0.48751 0.10646,-0.74517 -0.042,-0.39982 0.019,-0.47622 0.41652,-0.52194 0.54948,-0.0632 0.60003,-0.28579 0.12402,-0.54053 -0.27034,-0.1446 -0.30448,-0.24915 -0.16846,-0.50333 0.25499,-0.47646 0.22167,-0.51719 -0.3793,-0.47025 -0.54866,0.0428 -0.5497,0.0416 -0.4961,-0.67593 0.0331,-0.44266 -0.0523,-0.63936 -0.13334,-0.72037 z m 84.95447,-16.0801 c -0.1272,-0.003 -0.3298,0.12972 -0.55604,0.39894 -0.52238,0.6208 -0.72592,0.63436 -1.16478,0.0765 -0.43408,-0.55184 -0.54916,-0.42523 -0.4899,0.53847 0.0384,0.6241 -0.0204,0.82081 -0.30488,1.02009 -0.46396,0.32498 -0.44538,0.5319 0.0702,0.76688 0.34456,0.157 0.42374,0.31418 0.42374,0.84336 0,0.74882 0.6687,1.09226 0.6687,0.31729 v -0.001 c 0.4128,-0.29396 0.50532,-0.3044 0.78858,-0.0899 0.609,0.46102 0.79234,0.3232 0.66868,-0.50126 -0.0972,-0.64836 -0.0634,-0.78589 0.23566,-0.97255 0.47192,-0.29472 0.43758,-0.61814 -0.0868,-0.81752 -0.32602,-0.124 -0.41102,-0.24943 -0.339,-0.50333 0.0528,-0.1862 0.1366,-0.48407 0.187,-0.66249 0.0768,-0.27222 0.0258,-0.41066 -0.1012,-0.41341 z m -63.03216,-5.864102 -0.38448,0.48266 c -0.28148,0.35304 -0.48284,0.45572 -0.75138,0.38551 -0.53316,-0.1394 -0.62944,0.17446 -0.1954,0.63665 0.32484,0.34574 0.35124,0.47184 0.1954,0.91881 -0.1422,0.40812 -0.1324,0.51883 0.0444,0.51883 0.1234,0 0.31916,-0.11466 0.4351,-0.25425 0.2896,-0.34896 0.5662,-0.31842 0.94672,0.10438 l 0.32348,0.35864 0.0506,-0.6842 c 0.038,-0.50416 0.1604,-0.75476 0.46612,-0.95498 0.57422,-0.37626 0.51778,-0.60152 -0.151,-0.60152 -0.44934,0 -0.60836,-0.0942 -0.77308,-0.45578 z M 8.1636937,91.98557 c 0.1491854,0 -0.317558,0.30177 -0.460952,0.79582 -0.19484,0.67126 -0.30743,0.81311 -0.682126,0.85783 -0.556166,0.0664 -0.559896,0.14924 -0.02688,0.56844 0.399944,0.3146 0.408918,0.35659 0.1695,0.81959 -0.40484,0.78288 -0.281898,0.87025 0.551904,0.39171 0.487362,-0.27971 0.699172,-0.2549 1.261936,0.14882 0.425392,0.30516 0.56642,0.035 0.327628,-0.62529 -0.17912,-0.49536 -0.1679,-0.64466 0.07132,-1.00975 0.298566,-0.45566 0.25172,-0.51267 -0.5178,-0.63459 -0.256842,-0.0406 -0.351848,-0.2068 -0.391706,-0.6873 -0.03762,-0.45353 -0.4520108,-0.62528 -0.302826,-0.62528 z M 43.142003,91.191668 c -0.03404,-0.006 -0.06666,0.0489 -0.10646,0.15296 -0.573216,1.49912 -0.552552,1.47354 -1.092438,1.35496 -0.578856,-0.1272 -0.650716,0.0534 -0.258382,0.65215 0.222382,0.33941 0.223838,0.42542 0.0062,0.71314 -0.416226,0.55024 -0.31431,0.74443 0.370004,0.70383 0.511768,-0.0304 0.638396,0.026 0.68626,0.3018 0.10998,0.63367 0.19614,0.75632 0.456818,0.65628 0.14322,-0.055 0.261092,-0.26344 0.26252,-0.46302 0.0044,-0.62912 0.24256,-0.83332 0.82269,-0.70589 0.435404,0.0956 0.529168,0.0629 0.529168,-0.18086 0,-0.16301 -0.12058,-0.42966 -0.267684,-0.59222 -0.206768,-0.22847 -0.225044,-0.37259 -0.08372,-0.63665 0.259122,-0.48418 0.244644,-0.50626 -0.367936,-0.56534 -0.497336,-0.048 -0.568706,-0.12576 -0.74207,-0.81442 -0.09828,-0.39035 -0.23633,-0.52332 -0.214974,-0.57671 z m 37.467707,6.742401 c -0.10524,0.0184 -0.224346,0.15642 -0.340032,0.41031 -0.16106,0.35348 -0.272696,0.40658 -0.644922,0.31316 -0.418804,-0.1052 -0.443442,-0.0797 -0.35967,0.35864 0.0578,0.30234 -0.03132,0.67614 -0.25011,1.046961 -0.398324,0.6751 -0.302058,0.8648 0.300758,0.59015 0.593248,-0.27031 0.715988,-0.2489 0.840258,0.14262 0.14504,0.45697 0.556048,0.42945 0.623216,-0.0413 0.03194,-0.22396 0.19276,-0.40117 0.392742,-0.43305 0.694144,-0.1106 0.830574,-0.20192 0.620114,-0.412381 -0.1087,-0.1088 -0.1974,-0.41779 -0.1974,-0.68729 0,-0.33967 -0.09856,-0.51608 -0.322464,-0.57465 -0.17766,-0.0464 -0.361786,-0.22954 -0.408242,-0.40721 -0.05844,-0.22346 -0.254248,-0.199097 -0.254248,-0.30592 z m 93.63135,19.163191 c 0.35705,-0.008 -0.73048,0.0943 -0.82888,0.21291 -0.0984,0.1186 -0.31988,0.17076 -0.493,0.11576 -0.25618,-0.0814 -0.31466,-0.013 -0.31316,0.37621 0.001,0.2624 0.049,0.76199 0.1064,1.11001 0.0932,0.56346 0.1488,0.622 0.50642,0.53226 0.3274,-0.0822 0.40102,-0.0347 0.40102,0.25632 0,0.42936 0.127,0.44822 0.53432,0.0796 0.2407,-0.2178 0.3587,-0.2343 0.54882,-0.0765 0.3441,0.28558 0.48738,-0.0371 0.24908,-0.56017 -0.1512,-0.3321 -0.148,-0.48829 0.012,-0.68213 0.1226,-0.1478 0.1504,-0.34266 0.0672,-0.47129 -0.0778,-0.1204 -0.1416,-0.37022 -0.1416,-0.555 0,-0.27618 -0.1154,-0.33574 -0.64906,-0.33797 z m -141.371341,2.96326 c -0.126006,-0.0573 -0.276898,0.0897 -0.342102,0.25941 -0.07918,0.20631 -0.240064,0.2428 -0.695562,0.1571 l -0.59325,-0.11162 0.10956,0.54881 c 0.0715,0.35819 0.02474,0.67799 -0.13644,0.92397 -0.294784,0.44988 -0.1959,0.58395 0.429948,0.58395 0.319648,0 0.502316,0.10792 0.575674,0.339 0.12948,0.40795 0.379772,0.43095 0.777214,0.0713 0.238686,-0.216 0.367098,-0.22953 0.666628,-0.0692 0.51399,0.27506 0.744798,0.002 0.48369,-0.57051 -0.1646,-0.36126 -0.15888,-0.53552 0.02688,-0.88263 0.19832,-0.37058 0.19618,-0.45582 -0.0144,-0.58911 -0.1354,-0.0856 -0.381862,-0.15674 -0.547772,-0.15814 -0.1659,-0.002 -0.346366,-0.11776 -0.399976,-0.25735 -0.06416,-0.16718 -0.21403,-0.18768 -0.340026,-0.24495 z"
       sodipodi:nodetypes="ssscscssssssssssscsscscsssccssssccccscscccccccssssssssscsssscssscsssssssccsssscssscccscccscscscscccscscsssscsssssccscsssscscscsccccccsccscccccsscsscsscsscsssssssssccccccsscsccsscsccssscssssscsscsscsssssssccssscccssscsssssscsscssssscccsscscssccssccscccccsssssssssssssccsssssscscsssssssssssssssscssccsssssscsccscssssssssscsssssccsssssscsscccsssscccssscscsssssscssscccscsscsssccccscccccscccccsssssscssscsscsssscssssssssssccssssccscsscsscssssscccsccsscssssssscsccsssccss" />
  </g>
</svg>
