<?xml version="1.0" encoding="UTF-8" standalone="no"?><svg xmlns:svg="http://www.w3.org/2000/svg" xmlns="http://www.w3.org/2000/svg" id="svg8" version="1.1" viewBox="0 0 184.19101 15.676532" height="15.676532mm" width="184.19101mm"><defs id="defs2"><rect id="rect835" height="21.922619" width="186.72023" y="38.55357" x="12.85119"/></defs><metadata id="metadata5"/><g transform="translate(-13.157486,-41.896834)" id="layer1"><g id="text833" aria-label="Backsteinexpressionismus"><path id="path859" fill="#fdf3c9" d="m 17.374275,55.001951 q -1.058331,-0.909503 -2.108394,-1.794202 -1.050063,-0.876431 -2.108395,-1.777666 0.181901,-0.727603 0.256315,-1.48001 0.06615,-0.752407 0.06615,-1.504815 0,-0.901235 -0.08268,-1.794202 -0.09095,-0.884699 -0.239779,-1.761129 l 4.994001,-2.943484 2.893874,4.233325 -3.133652,1.876884 3.406504,2.050517 z m -1.504815,-6.38306 2.282027,-2.323368 -2.422586,-1.827275 v 7.962289 l 2.554877,-1.678447 z"/><path id="path861" fill="#fdf3c9" d="m 28.610777,54.7291 -1.190622,-1.94303 -3.960474,2.009176 q -0.330729,-1.463474 -0.760676,-2.86907 -0.438215,-1.397328 -0.983917,-2.786388 l 3.265944,-0.487824 -2.943484,-3.249408 q 1.289841,0.115755 2.530073,0.214973 1.240232,0.107487 2.397782,0.190169 0.611848,1.94303 1.322914,3.877792 0.702798,1.94303 1.62057,3.753769 z m -3.241139,-5.572775 q -0.396874,0.620116 -0.802017,1.223695 -0.41341,0.60358 -0.835089,1.198891 l 3.183262,0.305924 z"/><path id="path863" fill="#fdf3c9" d="m 32.381083,54.877928 q -0.272851,-0.711066 -0.587043,-1.455206 -0.314192,-0.735871 -0.661457,-1.471741 -0.347265,-0.735871 -0.719335,-1.446938 -0.372069,-0.711066 -0.760675,-1.364255 0.578775,-0.64492 1.066599,-1.182354 0.479556,-0.529166 0.901235,-1.01699 0.421679,-0.479557 0.818553,-0.942577 0.388606,-0.46302 0.785481,-0.967381 l 1.901689,2.910411 -3.050971,1.355987 q 0.363801,0.487825 0.793748,0.92604 0.429948,0.446484 0.892967,0.859894 0.46302,0.413411 0.950845,0.802017 0.487824,0.388606 0.967381,0.760675 z"/><path id="path865" fill="#fdf3c9" d="m 42.211989,54.662954 -2.364709,-5.010537 -0.950845,0.214974 -0.338996,4.167179 -1.587497,0.950845 q -0.04961,-1.190623 -0.115755,-2.430855 -0.06615,-1.240232 -0.165365,-2.505268 -0.09922,-1.256769 -0.248046,-2.513537 -0.148828,-1.2485 -0.372069,-2.455659 l 3.439576,-2.728511 -0.545702,6.622839 4.406958,-3.323822 1.19889,2.811193 -3.704159,0.934308 4.233325,3.249407 z"/><path id="path867" fill="#fdf3c9" d="m 53.150834,50.561921 q -0.677994,0.537434 -1.29811,1.091404 -0.620116,0.55397 -1.207159,1.132745 -0.595311,0.578775 -1.165818,1.174086 -0.578775,0.60358 -1.157549,1.223696 l -2.695438,-2.248954 3.877792,-1.355987 -4.010083,-3.33209 Q 46.866992,47.42 48.165101,46.49396 q 1.29811,-0.92604 2.596219,-1.835543 l 1.554424,2.505268 q -1.000453,0.09922 -1.926493,0.355533 -0.934308,0.264583 -1.876885,0.636653 z"/><path id="path869" fill="#fdf3c9" d="m 58.624393,48.312967 q -0.281119,-0.07441 -0.562238,-0.14056 -0.289388,-0.06614 -0.570507,-0.115755 l -0.405142,5.50663 q -0.570507,0.330729 -1.141014,0.653189 -0.570506,0.32246 -1.091404,0.719334 l -0.256314,-7.201613 h -1.537888 l 4.977464,-5.671994 q -0.264583,0.917772 -0.446483,1.719788 -0.190169,0.810285 -0.264583,1.62057 h 3.166726 z"/><path id="path871" fill="#fdf3c9" d="m 63.833368,51.413547 3.183262,1.389059 -4.638467,2.232418 q -0.620116,-1.595765 -1.314646,-3.158457 -0.69453,-1.554424 -1.513083,-3.075776 l 3.505722,-4.655003 q 0.537434,0.752407 1.0666,1.405596 0.529165,0.661457 1.050063,1.265036 0.520897,0.611848 1.033526,1.182355 0.504361,0.570506 1.016991,1.141013 z m -2.778119,-2.306832 2.116662,1.901689 1.513083,-3.828182 z"/><path id="path873" fill="#fdf3c9" d="m 67.76904,46.436083 q 0.520898,-0.92604 0.777212,-2.000908 0.248047,-1.074868 0.314192,-2.133199 0.711067,-0.115755 1.422133,-0.214973 0.702798,-0.09095 1.422133,-0.190169 z m 2.323368,7.061053 -1.761129,1.132746 -0.711066,-6.788203 3.65455,-2.761583 z"/><path id="path875" fill="#fdf3c9" d="m 76.839268,55.068097 0.620116,-7.160273 q -0.702798,0.14056 -1.364255,0.347265 -0.669725,0.214974 -1.289841,0.545702 l -0.305924,5.18417 -1.455206,0.578775 q -0.124023,-0.884699 -0.256314,-1.769398 -0.132292,-0.87643 -0.289388,-1.752861 -0.157096,-0.868162 -0.355533,-1.736325 -0.198437,-0.859894 -0.454752,-1.719788 l 3.373431,-2.629292 -0.157096,2.422587 3.65455,-2.720242 q 0.181901,1.025258 0.347265,2.058785 0.165365,1.033526 0.338997,2.058785 0.165364,1.033526 0.363801,2.058785 0.190169,1.033526 0.429947,2.050517 z"/><path id="path877" fill="#fdf3c9" d="m 84.735411,51.413547 3.183262,1.389059 -4.638468,2.232418 Q 82.660089,53.439259 81.965559,51.876567 81.27103,50.322143 80.452477,48.800791 l 3.505722,-4.655003 q 0.537434,0.752407 1.066599,1.405596 0.529166,0.661457 1.050063,1.265036 0.520898,0.611848 1.033527,1.182355 0.504361,0.570506 1.01699,1.141013 z m -2.77812,-2.306832 2.116663,1.901689 1.513083,-3.828182 z"/><path id="path879" fill="#fdf3c9" d="m 96.831808,52.372659 q -0.338997,0.272851 -0.653189,0.611848 -0.314192,0.347265 -0.603579,0.727603 -0.289388,0.380338 -0.545702,0.768944 -0.264583,0.388606 -0.487825,0.760675 l -1.992639,-4.745954 q -0.23151,0.37207 -0.454752,0.760676 -0.223242,0.396874 -0.421679,0.810285 -0.198437,0.41341 -0.355533,0.835089 -0.157096,0.429947 -0.256315,0.859894 l -3.241139,0.496093 3.877792,-5.068415 -3.522259,-3.108848 3.183262,-1.529619 1.223696,3.389967 q 0.421678,-0.818553 0.694529,-1.686715 0.272851,-0.859894 0.421679,-1.752861 l 3.133653,1.050063 -3.456113,3.638013 z"/><path id="path881" fill="#fdf3c9" d="m 105.39768,51.835226 q -0.74414,0.587043 -1.43041,1.231963 -0.68626,0.644921 -1.31464,1.372524 -0.5457,-0.09922 -1.09967,-0.198437 -0.55397,-0.09922 -1.11621,-0.190169 l 0.17363,2.472195 -2.389513,1.050063 q 0.02481,-0.661457 0.04961,-1.314646 0.01654,-0.661457 0.01654,-1.322914 0,-0.32246 -0.0083,-0.628384 -0.0083,-0.314192 -0.0083,-0.628384 l -1.050063,-0.239778 0.901235,-2.215881 q -0.06614,-0.793749 -0.190168,-1.579229 -0.124024,-0.78548 -0.338997,-1.554424 1.38906,-0.595311 2.670637,-1.430401 1.2733,-0.826821 2.48046,-1.736324 z m -5.399147,-4.555786 0.272847,4.084497 2.92695,0.760676 z"/><path id="path883" fill="#fdf3c9" d="m 110.49917,50.396557 -2.08359,-2.356441 2.35644,-2.96002 1.25677,2.720242 z M 108.52307,44.923 q -0.1819,1.471741 -0.24805,2.943483 -0.0744,1.48001 -0.0744,2.968289 0,0.752407 0.0165,1.496546 0.008,0.752408 0.0496,1.504815 l -1.66191,0.992186 -1.14928,-7.176809 z"/><path id="path885" fill="#fdf3c9" d="m 116.71686,51.413547 3.18327,1.389059 -4.63847,2.232418 q -0.62012,-1.595765 -1.31465,-3.158457 -0.69453,-1.554424 -1.51308,-3.075776 l 3.50572,-4.655003 q 0.53744,0.752407 1.0666,1.405596 0.52917,0.661457 1.05006,1.265036 0.5209,0.611848 1.03353,1.182355 0.50436,0.570506 1.01699,1.141013 z m -2.77812,-2.306832 2.11667,1.901689 1.51308,-3.828182 z"/><path id="path887" fill="#fdf3c9" d="m 128.16007,50.561921 q -0.67799,0.537434 -1.29811,1.091404 -0.62011,0.55397 -1.20716,1.132745 -0.59531,0.578775 -1.16581,1.174086 -0.57878,0.60358 -1.15755,1.223696 l -2.69544,-2.248954 3.87779,-1.355987 -4.01008,-3.33209 q 1.37252,-0.826821 2.67063,-1.752861 1.29811,-0.92604 2.59622,-1.835543 l 1.55442,2.505268 q -1.00045,0.09922 -1.92649,0.355533 -0.93431,0.264583 -1.87688,0.636653 z"/><path id="path889" fill="#fdf3c9" d="m 135.20459,50.561921 q -0.67799,0.537434 -1.29811,1.091404 -0.62011,0.55397 -1.20716,1.132745 -0.59531,0.578775 -1.16582,1.174086 -0.57877,0.60358 -1.15755,1.223696 l -2.69543,-2.248954 3.87779,-1.355987 -4.01008,-3.33209 q 1.37252,-0.826821 2.67063,-1.752861 1.29811,-0.92604 2.59622,-1.835543 l 1.55442,2.505268 q -1.00045,0.09922 -1.92649,0.355533 -0.93431,0.264583 -1.87689,0.636653 z"/><path id="path891" fill="#fdf3c9" d="m 135.76683,46.436083 q 0.5209,-0.92604 0.77721,-2.000908 0.24805,-1.074868 0.3142,-2.133199 0.71106,-0.115755 1.42213,-0.214973 0.7028,-0.09095 1.42213,-0.190169 z m 2.32337,7.061053 -1.76113,1.132746 -0.71107,-6.788203 3.65455,-2.761583 z"/><path id="path893" fill="#fdf3c9" d="m 147.18524,52.802606 q -1.05007,0.405143 -2.00091,0.983918 -0.95911,0.587043 -1.86035,1.281573 -0.79375,-1.413865 -1.68672,-2.761583 -0.90123,-1.347719 -1.95129,-2.587951 l 3.65455,-5.060146 q 1.05833,0.826821 2.09185,1.661911 1.02526,0.843357 2.07533,1.686715 z m -5.19244,-3.596672 3.00963,3.679355 v -5.423948 z"/><path id="path895" fill="#fdf3c9" d="m 153.07219,55.068097 0.62012,-7.160273 q -0.7028,0.14056 -1.36426,0.347265 -0.66972,0.214974 -1.28984,0.545702 l -0.30592,5.18417 -1.45521,0.578775 q -0.12402,-0.884699 -0.25631,-1.769398 -0.13229,-0.87643 -0.28939,-1.752861 -0.15709,-0.868162 -0.35553,-1.736325 -0.19844,-0.859894 -0.45475,-1.719788 l 3.37343,-2.629292 -0.1571,2.422587 3.65455,-2.720242 q 0.1819,1.025258 0.34727,2.058785 0.16536,1.033526 0.33899,2.058785 0.16537,1.033526 0.3638,2.058785 0.19017,1.033526 0.42995,2.050517 z"/><path id="path897" fill="#fdf3c9" d="m 156.83424,46.436083 q 0.52089,-0.92604 0.77721,-2.000908 0.24805,-1.074868 0.31419,-2.133199 0.71107,-0.115755 1.42213,-0.214973 0.7028,-0.09095 1.42214,-0.190169 z m 2.32337,7.061053 -1.76113,1.132746 -0.71107,-6.788203 3.65455,-2.761583 z"/><path id="path899" fill="#fdf3c9" d="m 168.40974,50.561921 q -0.678,0.537434 -1.29811,1.091404 -0.62012,0.55397 -1.20716,1.132745 -0.59531,0.578775 -1.16582,1.174086 -0.57877,0.60358 -1.15755,1.223696 l -2.69544,-2.248954 3.8778,-1.355987 -4.01009,-3.33209 Q 162.1259,47.42 163.424,46.49396 q 1.29811,-0.92604 2.59622,-1.835543 l 1.55443,2.505268 q -1.00046,0.09922 -1.9265,0.355533 -0.9343,0.264583 -1.87688,0.636653 z"/><path id="path901" fill="#fdf3c9" d="m 178.03394,54.877928 0.45475,-6.209428 -0.50436,-0.578775 -2.01744,0.545702 0.71106,3.571868 -2.65409,2.372977 0.42168,-6.722057 -2.43913,1.008722 v 4.861709 l -1.42213,0.901236 q -0.20671,-1.827276 -0.66146,-3.604941 -0.46302,-1.769398 -1.09967,-3.489186 l 3.18326,-2.811193 v 2.538342 q 0.91777,-0.421679 1.76113,-1.01699 0.83509,-0.595312 1.47174,-1.372524 l 0.42168,2.166272 q 0.97565,-0.429947 1.80247,-1.074868 0.82682,-0.64492 1.50482,-1.463473 l 2.03398,8.028434 z"/><path id="path903" fill="#fdf3c9" d="m 189.29525,45.080096 q -0.19017,1.48001 -0.32246,2.81946 -0.13229,1.339451 -0.13229,2.695438 0,0.628384 0.0165,1.2485 0.008,0.620116 0.0496,1.240232 l -1.74459,1.579228 -0.26458,-2.58795 q -1.02526,0.611847 -1.96784,1.306377 -0.94257,0.69453 -1.86034,1.446938 -0.25632,-1.85208 -0.69453,-3.65455 -0.43822,-1.794203 -0.98392,-3.588405 l 3.18326,-2.455659 -0.57877,6.093673 2.77812,-0.32246 -0.42168,-3.621478 z"/><path id="path905" fill="#fdf3c9" d="m 197.34849,50.561921 q -0.67799,0.537434 -1.29811,1.091404 -0.62012,0.55397 -1.20716,1.132745 -0.59531,0.578775 -1.16582,1.174086 -0.57877,0.60358 -1.15755,1.223696 l -2.69544,-2.248954 3.8778,-1.355987 -4.01009,-3.33209 q 1.37253,-0.826821 2.67064,-1.752861 1.29811,-0.92604 2.59622,-1.835543 l 1.55442,2.505268 q -1.00045,0.09922 -1.92649,0.355533 -0.93431,0.264583 -1.87689,0.636653 z"/></g></g></svg>