<svg xmlns="http://www.w3.org/2000/svg" viewBox="0 0 184.191 15.677" height="59.25" width="696.155"><defs><path id="a" d="M12.851 38.554h186.72v21.923H12.851z"/></defs><g aria-label="Backsteinexpressionismus" letter-spacing=".397" word-spacing="0" fill="#fdf3c9" transform="translate(-13.157 -41.897)"><path d="M17.374 55.002q-1.058-.91-2.108-1.794-1.05-.877-2.109-1.778.182-.728.257-1.48.066-.752.066-1.505 0-.901-.083-1.794-.09-.885-.24-1.761l4.994-2.944 2.894 4.234-3.133 1.877 3.406 2.05zm-1.505-6.383l2.282-2.323-2.422-1.828v7.963l2.555-1.679zM28.61 54.73l-1.19-1.944-3.96 2.01q-.331-1.464-.761-2.87-.438-1.397-.984-2.786l3.266-.488-2.943-3.25q1.29.116 2.53.216 1.24.107 2.397.19.612 1.943 1.323 3.877.703 1.944 1.62 3.754zm-3.24-5.574q-.397.62-.802 1.224-.414.604-.835 1.199l3.183.306zM32.381 54.878q-.273-.711-.587-1.455-.314-.736-.661-1.472-.348-.736-.72-1.447-.372-.711-.76-1.364.578-.645 1.066-1.183.48-.529.901-1.017.422-.48.819-.942.389-.463.785-.968l1.902 2.91-3.05 1.357q.363.488.793.926.43.446.893.86.463.413.95.802.489.388.968.76zM42.212 54.663l-2.365-5.01-.95.214-.34 4.168-1.587.95q-.05-1.19-.116-2.43-.066-1.24-.165-2.506-.1-1.256-.248-2.513-.15-1.249-.372-2.456l3.44-2.728-.546 6.622 4.407-3.323 1.198 2.81-3.704.935 4.234 3.25zM53.15 50.562q-.677.537-1.297 1.091-.62.554-1.207 1.133-.596.579-1.166 1.174-.579.604-1.158 1.224l-2.695-2.25 3.878-1.355-4.01-3.332q1.372-.827 2.67-1.753 1.298-.926 2.596-1.836l1.555 2.506q-1 .099-1.927.355-.934.265-1.877.637zM58.624 48.313q-.28-.074-.562-.14-.29-.067-.57-.116l-.405 5.506q-.571.331-1.142.653-.57.323-1.09.72l-.257-7.202H53.06l4.977-5.672q-.264.918-.446 1.72-.19.81-.265 1.62h3.167zM63.833 51.414l3.184 1.389-4.639 2.232q-.62-1.596-1.314-3.158-.695-1.555-1.514-3.076l3.506-4.655q.538.752 1.067 1.405.529.662 1.05 1.265.52.612 1.033 1.183.505.57 1.017 1.14zm-2.778-2.307l2.117 1.901 1.513-3.828zM67.769 46.436q.52-.926.777-2 .248-1.076.314-2.134.712-.116 1.423-.215.702-.09 1.422-.19zm2.323 7.061l-1.76 1.133-.712-6.788 3.655-2.762zM76.84 55.068l.62-7.16q-.703.14-1.365.347-.67.215-1.29.546l-.306 5.184-1.455.579q-.124-.885-.256-1.77-.132-.876-.29-1.753-.157-.868-.355-1.736-.199-.86-.455-1.72l3.374-2.629-.157 2.423 3.654-2.72q.182 1.025.347 2.058.166 1.034.34 2.059.165 1.034.363 2.059.19 1.033.43 2.05zM84.735 51.414l3.184 1.389-4.639 2.232q-.62-1.596-1.314-3.158-.695-1.555-1.514-3.076l3.506-4.655q.538.752 1.067 1.405.529.662 1.05 1.265.52.612 1.033 1.183.505.57 1.017 1.14zm-2.778-2.307l2.117 1.901 1.513-3.828z"/><path d="M96.832 52.373q-.34.273-.653.612-.315.347-.604.727-.29.38-.546.77-.264.388-.487.76l-1.993-4.746q-.232.372-.455.76-.223.397-.422.81-.198.414-.355.836-.157.43-.256.86l-3.242.496 3.878-5.069-3.522-3.108 3.183-1.53 1.224 3.39q.422-.819.694-1.687.273-.86.422-1.753l3.134 1.05-3.456 3.638zM105.398 51.835q-.744.587-1.43 1.232-.687.645-1.315 1.373-.546-.1-1.1-.199t-1.116-.19l.173 2.472-2.39 1.05.05-1.314q.017-.662.017-1.323 0-.323-.008-.629-.009-.314-.009-.628l-1.05-.24.902-2.216q-.067-.793-.19-1.579-.125-.785-.34-1.554 1.39-.596 2.671-1.43 1.273-.827 2.48-1.737zm-5.4-4.556l.273 4.085 2.927.76zM110.5 50.397l-2.084-2.357 2.356-2.96 1.257 2.72zm-1.977-5.474q-.182 1.472-.248 2.943-.074 1.48-.074 2.969 0 .752.016 1.496.008.753.05 1.505l-1.662.992-1.15-7.176zM116.717 51.414l3.183 1.389-4.638 2.232q-.62-1.596-1.315-3.158-.695-1.555-1.513-3.076l3.506-4.655q.537.752 1.066 1.405.53.662 1.05 1.265.521.612 1.034 1.183.504.57 1.017 1.14zm-2.778-2.307l2.116 1.901 1.513-3.828zM128.16 50.562q-.678.537-1.298 1.091-.62.554-1.207 1.133-.596.579-1.166 1.174-.579.604-1.158 1.224l-2.695-2.25 3.878-1.355-4.01-3.332q1.372-.827 2.67-1.753 1.298-.926 2.597-1.836l1.554 2.506q-1 .099-1.927.355-.934.265-1.876.637z"/><path d="M135.205 50.562q-.678.537-1.299 1.091-.62.554-1.207 1.133-.595.579-1.166 1.174-.578.604-1.157 1.224l-2.695-2.25 3.877-1.355-4.01-3.332q1.373-.827 2.67-1.753 1.299-.926 2.597-1.836l1.554 2.506q-1 .099-1.926.355-.934.265-1.877.637zM135.767 46.436q.52-.926.777-2 .248-1.076.314-2.134.711-.116 1.422-.215.703-.09 1.423-.19zm2.323 7.061l-1.76 1.133-.712-6.788 3.655-2.762zM147.185 52.803q-1.05.405-2 .984-.96.587-1.861 1.281-.794-1.414-1.687-2.761-.901-1.348-1.951-2.588l3.655-5.06q1.058.826 2.091 1.661 1.026.844 2.076 1.687zm-5.192-3.597l3.01 3.68V47.46zM153.072 55.068l.62-7.16q-.702.14-1.364.347-.67.215-1.29.546l-.306 5.184-1.455.579q-.124-.885-.256-1.77-.133-.876-.29-1.753-.157-.868-.355-1.736-.199-.86-.455-1.72l3.374-2.629-.158 2.423 3.655-2.72q.182 1.025.347 2.058.166 1.034.34 2.059.165 1.034.363 2.059.19 1.033.43 2.05zM156.834 46.436q.521-.926.777-2 .249-1.076.315-2.134.71-.116 1.422-.215.703-.09 1.422-.19zm2.324 7.061l-1.762 1.133-.71-6.788 3.654-2.762zM168.41 50.562q-.678.537-1.298 1.091-.62.554-1.208 1.133-.595.579-1.165 1.174-.58.604-1.158 1.224l-2.695-2.25 3.877-1.355-4.01-3.332q1.373-.827 2.671-1.753 1.298-.926 2.596-1.836l1.555 2.506q-1 .099-1.927.355-.934.265-1.877.637zM178.034 54.878l.455-6.21-.505-.578-2.017.545.71 3.572-2.653 2.373.422-6.722-2.44 1.009v4.862l-1.422.9q-.206-1.826-.661-3.604-.463-1.77-1.1-3.49l3.183-2.81v2.538q.918-.422 1.762-1.017.835-.595 1.471-1.373l.422 2.167q.976-.43 1.802-1.075.827-.645 1.505-1.464l2.034 8.029zM189.295 45.08q-.19 1.48-.322 2.82-.133 1.339-.133 2.695 0 .628.017 1.248.008.62.05 1.24l-1.745 1.58-.265-2.588q-1.025.612-1.967 1.306-.943.695-1.86 1.447-.257-1.852-.695-3.654-.438-1.794-.984-3.589l3.183-2.455-.579 6.093 2.778-.322-.421-3.622zM197.348 50.562q-.678.537-1.298 1.091-.62.554-1.207 1.133-.595.579-1.166 1.174-.578.604-1.157 1.224l-2.696-2.25 3.878-1.355-4.01-3.332q1.373-.827 2.67-1.753 1.299-.926 2.597-1.836l1.554 2.506q-1 .099-1.926.355-.934.265-1.877.637z"/></g></svg>