<svg xmlns="http://www.w3.org/2000/svg" width="725.614" height="419.157" viewBox="0 0 191.985 110.902"><path d="M48.17 12.184c-.093 0-.202.137-.271.411-.124.494-.344.534-.777.143-.385-.349-.568-.204-.323.255.1.188.183.578.183.866 0 .31.104.565.254.622.157.06.255.318.255.672 0 .717.296.746.538.052.168-.48.23-.514.754-.416.652.123.678.075.286-.524-.228-.347-.245-.497-.085-.753.279-.446.257-.493-.223-.493-.339 0-.424-.085-.424-.424 0-.274-.075-.411-.167-.411m31.246.51c-.131.012-.284.157-.408.428-.203.447-.474.48-1.25.154-.41-.172-.387.258.043.804.386.491.427.815.138 1.103-.295.295-.007.48.376.242.49-.306.671-.25.671.205 0 .54.17.964.345.856.076-.047.226-.35.333-.676.17-.515.266-.59.754-.59.546 0 .558-.016.541-.72-.009-.396.02-.834.063-.974.057-.177-.021-.237-.258-.2-.9.142-1.016.112-1.07-.266-.036-.257-.146-.377-.278-.366m64.315 6.75c-.079.058-.226.21-.397.568-.245.514-.344.581-.717.488-.395-.1-.423-.071-.326.317.06.238.027.474-.075.537-.1.062-.266.269-.368.46-.177.33-.152.341.507.23.68-.115.693-.108.693.377 0 .863.42 1.001.596.196.097-.44.18-.512.521-.447.456.087.53-.176.214-.765-.165-.31-.124-.414.297-.76l.489-.4-.594.051c-.535.047-.597.006-.646-.414-.036-.313-.115-.498-.194-.439m34.615-5.329q-.094-.014-.23.1c-.131.11-.24.26-.24.334 0 .073-.266.538-.592 1.033-.582.884-.733 1.331-.45 1.331.08 0 .282-.153.45-.339.41-.453.668-.427.906.094.323.71.496.33.454-.997-.033-1.068-.109-1.523-.298-1.556M94.709 47.69c-.077-.013-.153.149-.252.499-.19.669-.2.677-.915.619-.817-.067-.813.15.011.575.454.235.493.319.394.846-.116.622.075.767.436.33.256-.307.572-.322 1.011-.048.448.28.569.102.313-.459-.2-.44-.176-.498.417-.995.346-.291.63-.587.63-.656 0-.214-.573-.132-.922.132-.488.369-.752.304-.876-.217-.096-.4-.17-.612-.247-.626m17.506-23.273c-.162-.016-.369.387-.372.782-.004.523-.251.616-.835.315-.683-.354-.789-.08-.19.494.55.526.524.801-.101 1.086-.58.264-.417.613.287.613.443 0 .587.078.63.339.15.896.476 1.048.64.296.18-.817.226-.888.577-.888.37 0 .456-.329.162-.623-.129-.129-.055-.28.255-.524.547-.43.578-.783.054-.624-.657.2-.696.177-.81-.475-.061-.35-.165-.692-.231-.758a.1.1 0 0 0-.066-.033m9.817 19.04c-.067.015-.115.094-.115.246 0 .14-.14.395-.313.567-.43.432-.305 1.438.162 1.29a.88.88 0 0 1 .614.075c.485.282.587.215.473-.307-.062-.282-.032-.54.071-.603.266-.164.217-.429-.08-.429-.141 0-.33-.19-.418-.423-.11-.29-.281-.442-.394-.416M9.09 44.083c-.152-.065-.377.36-.383.744a1.3 1.3 0 0 1-.157.578c-.13.205-.216.2-.584-.042-.628-.412-.782-.353-.782.298 0 .473-.071.591-.382.635-.514.073-.484.522.043.645.326.077.435.224.476.644.047.484.1.532.466.44.391-.098.413-.063.413.65 0 .666.091.977.288.977.034 0 .215-.355.4-.79.259-.6.386-.743.536-.593.333.333.613.222.669-.267.046-.403.145-.478.718-.551.894-.114.96-.445.133-.668-.582-.157-.656-.231-.586-.594.07-.368.024-.412-.403-.382-.456.033-.489-.01-.576-.762-.051-.439-.151-.855-.222-.926-.021-.021-.045-.026-.067-.035m187.736-13.225c-.107.011-.22.165-.317.458-.091.279-.182.533-.201.564s-.193-.03-.388-.133c-.317-.17-.353-.143-.353.264 0 .25-.125.545-.28.657-.312.229-.178.595.219.595.2 0 .231.118.14.531-.11.503-.093.526.313.424.378-.095.442-.044.546.442.065.303.154.61.198.685.126.214.532-.207.59-.613.04-.286.157-.361.519-.337.503.035.646-.374.265-.755-.152-.153-.124-.282.12-.552.25-.276.279-.416.132-.65-.102-.164-.147-.504-.1-.753.096-.502-.131-.596-.465-.194-.279.336-.555.236-.668-.24-.064-.275-.164-.405-.27-.393zM30.232 24.54c-.046-.06-.135.09-.135.258 0 .176-.099.456-.22.622-.2.274-.241.277-.444.032-.336-.405-.721-.338-.659.113.044.315-.042.395-.503.465-.625.095-.809.392-.29.47 1.085.164 1.144.204 1.042.712-.089.446-.058.486.355.458.333-.023.468.057.511.307.16.92.44.956.632.083.112-.512.316-.647.507-.337.058.093.219.17.357.17.195 0 .227-.132.143-.582-.105-.56-.09-.582.457-.634.767-.074.721-.38-.067-.446-.666-.055-.748-.182-.46-.72.203-.38-.135-.47-.477-.127-.247.247-.415.098-.44-.393-.015-.287-.234-.35-.31-.45m112.527 17.946c-.133-.009-.296.158-.416.504-.098.28-.296.509-.44.509-.195 0-.252.15-.22.585.035.498.094.572.393.497a.59.59 0 0 1 .57.177c.324.389.47.325.554-.24.04-.276.012-.601-.063-.72-.076-.118-.139-.463-.14-.765-.002-.355-.105-.539-.238-.547m-36.03 31.398c-.115.012-.259.218-.372.611-.144.502-.195.532-.722.433-.614-.115-.663-.056-.386.461.133.25.124.407-.035.599-.177.214-.165.287.068.417s.248.231.09.577c-.254.558-.054.72.392.318.356-.32.363-.32.614.057.386.578.775.5.637-.127-.108-.49-.09-.507.485-.507.737 0 .909-.237.454-.627-.19-.163-.346-.422-.346-.576 0-.155-.153-.322-.339-.37-.261-.069-.339-.231-.339-.712 0-.382-.317-.565-.201-.554m88.934-2.583c-.145-.02-.266.077-.266.306 0 .173-.144.497-.319.719-.25.32-.3.59-.232 1.293.093.97.342 1.135.768.507.224-.33.305-.353.61-.17.592.356.696.25.696-.707 0-.78-.053-.937-.348-1.03-.192-.061-.418-.295-.504-.52-.091-.24-.26-.378-.405-.398M72.895 46.58c0-.165-.338.234-.46.588-.249.73-.324.777-.844.54-.698-.318-.86.016-.346.709.419.564.435.735.154 1.642-.153.493.189.506.698.028l.375-.352.122.564c.218 1.008.429 1.022.833.055.229-.548.26-.564.752-.378.701.265.834.055.367-.576-.377-.511-.38-.546-.107-1.119l.282-.59-.603.112c-.635.119-.64.114-.842-.803-.07-.316-.381-.254-.381-.42m98.372-11.966c.122.009-.266.253-.392.629-.233.692-.472.795-1.016.44-.458-.301-.931-.357-.931-.11 0 .088.27.367.6.619.35.266.563.554.509.686l-.196.48c-.067.165.042.305.318.41.333.126.402.249.337.592-.113.588.09 1.325.343 1.242.113-.036.29-.404.392-.816.187-.747.191-.75.89-.704.828.054.959-.292.278-.738-.518-.34-.53-.52-.058-.903.4-.324.294-.737-.17-.66-.454.074-.704-.184-.704-.731 0-.335-.323-.446-.2-.436M38.95 47.918c-.134-.008-.294.154-.433.49-.196.471-.256.499-.868.4-.69-.11-.855.073-.404.447.29.24.338.775.085.932-.33.203-.162.402.381.454.444.043.56.136.6.477.125 1.035.421 1.136.716.243.152-.462.266-.577.48-.49.153.064.425.158.602.209.335.095.335.084-.011-1.006-.057-.18.068-.385.35-.57.56-.367.602-.834.057-.65-.21.07-.571.132-.804.138-.356.008-.432-.077-.477-.54-.033-.347-.14-.526-.274-.534m128.864 5.45c-.106 0-.222.194-.317.597-.093.392-.268.66-.465.712-.393.103-.391.287.014 1.14.175.372.28.737.233.813-.124.2.073.63.288.63.1 0 .262-.228.36-.508.128-.37.284-.508.573-.508.592 0 .62-.211.12-.945-.249-.365-.494-.953-.544-1.305-.058-.411-.155-.626-.261-.626zM68.74 74.04c0-.107-.249.156-.419.562-.27.648-.45.727-.772.34-.297-.358-.738-.329-.634.042.224.79.219.798-.454.886-1.123.148-.84.67.368.677.471.002.486.33.042.895-.533.677-.418.882.268.478.731-.432.917-.347.917.419 0 .837.436.765.574-.096.124-.774.461-.889.75-.254.283.62.601.539.5-.127-.113-.734-.006-.972.435-.976.464-.004.906-.275.731-.45-.073-.073-.433-.126-.8-.116-.366.01-.665-.016-.665-.057 0-.04.193-.33.43-.64.502-.658.313-.916-.31-.425-.642.504-.798.42-.798-.426 0-.456-.163-.625-.163-.732m66.117-4.063c.083-.107-.214.219-.153.597.08.49.026.625-.332.86-.391.256-.403.301-.156.574.148.163.268.5.268.749 0 .507.256.58.683.193.26-.236.314-.22.569.17.385.587.612.537.612-.137v-.001c0-.439.094-.608.422-.758.476-.216.551-.5.17-.647-.19-.073-.227-.257-.147-.756.084-.522.052-.66-.15-.66-.142 0-.382.19-.534.423-.361.552-.522.535-.778-.084-.152-.367-.556-.415-.474-.523m-109.46-.647a.6.6 0 0 0-.251.155c-.167.15-.421.222-.58.161-.233-.09-.275-.01-.24.449.025.323-.045.586-.165.626-.335.111-.238.549.12.549.182 0 .376.076.434.17.153.247.52.206.762-.086.115-.14.403-.253.64-.253.421 0 .423-.006.113-.348-.26-.287-.279-.406-.11-.675.274-.44.26-.501-.125-.501-.18 0-.379-.08-.44-.18a.14.14 0 0 0-.158-.067M156.81 84.885c-.19-.063-.235.17-.16.64.066.407.034.7-.082.773-.332.205-.2.564.25.676.405.102.428.16.324.78-.095.561-.067.672.171.672.157 0 .325-.153.373-.34.101-.386.355-.423.973-.141.579.264.728.065.386-.514-.288-.487-.15-.868.312-.868.11 0 .3-.12.421-.268.284-.342-.018-.563-.615-.45-.35.068-.412.015-.412-.354 0-.598-.333-.75-.686-.314-.293.362-.294.362-.72.027-.242-.19-.417-.298-.535-.32m-46.834 33.734c-.072-.073-.219.095-.26.212-.04.116-.159.44-.262.72l-.188.508-.394-.491-.394-.49-.12 1.12c-.066.617-.225 1.209-.354 1.316-.13.107-.235.305-.235.441 0 .186.125.22.508.136.433-.096.508-.062.508.23 0 .521.35.626.671.202l.285-.379.305.465c.264.403.326.428.46.187.086-.152.134-.487.107-.745-.042-.4.019-.476.416-.522.55-.063.6-.285.124-.54-.27-.145-.304-.25-.168-.504.255-.476.221-.517-.38-.47-.548.043-.55.042-.496-.676.033-.442-.052-.64-.133-.72m84.954-16.08c-.127-.003-.33.13-.556.399-.522.62-.726.634-1.164.076-.434-.552-.55-.425-.49.539.038.624-.02.82-.305 1.02-.464.325-.446.532.07.767.345.157.424.314.424.843 0 .749.668 1.092.668.317.413-.295.506-.305.789-.09.609.46.792.323.669-.502-.097-.648-.064-.786.235-.972.472-.295.438-.619-.086-.818-.326-.124-.411-.25-.34-.503l.188-.663c.076-.272.025-.41-.102-.413M131.9 96.675l-.384.482c-.282.353-.483.456-.752.386-.533-.14-.629.174-.195.636.325.346.351.472.195.92-.142.407-.132.518.045.518.123 0 .319-.115.435-.254.29-.35.566-.319.947.104l.323.359.05-.684c.039-.504.161-.755.467-.955.574-.377.518-.602-.151-.602-.45 0-.609-.094-.773-.456zM8.164 91.985c.149 0-.318.302-.461.796-.195.672-.308.813-.682.858-.557.067-.56.15-.027.569.4.314.409.356.17.82-.406.782-.283.87.551.391.488-.28.7-.255 1.262.149.425.305.566.035.328-.626-.18-.495-.168-.644.071-1.01.299-.455.252-.512-.518-.634-.257-.04-.352-.207-.391-.687-.038-.454-.452-.625-.303-.625m34.978-.793c-.034-.006-.067.049-.106.153-.574 1.499-.553 1.473-1.093 1.355-.579-.128-.65.053-.258.652.222.34.224.425.006.713-.416.55-.314.744.37.704.512-.03.638.026.686.302.11.633.196.756.457.656.143-.055.261-.264.263-.463.004-.63.242-.834.822-.706.436.095.53.063.53-.181 0-.163-.121-.43-.268-.592-.207-.229-.225-.373-.084-.637.26-.484.245-.506-.368-.565-.497-.048-.569-.126-.742-.815-.098-.39-.236-.523-.215-.576m37.468 6.742c-.106.018-.225.156-.34.41-.161.354-.273.407-.645.314-.419-.106-.444-.08-.36.358.058.303-.031.676-.25 1.047-.398.675-.302.865.3.59.594-.27.717-.249.841.143.145.457.556.43.623-.041.032-.224.193-.402.393-.433.694-.111.83-.202.62-.413-.109-.109-.197-.418-.197-.687 0-.34-.099-.516-.323-.575a.63.63 0 0 1-.408-.407c-.058-.223-.254-.2-.254-.306m93.631 19.163c.357-.008-.73.095-.829.213-.098.119-.32.17-.493.116-.256-.081-.314-.013-.313.376.001.263.049.762.106 1.11.094.564.15.622.507.532.327-.082.4-.034.4.257 0 .43.128.448.535.08.24-.218.359-.235.549-.077.344.285.487-.037.25-.56-.152-.332-.149-.489.011-.682.123-.148.15-.343.067-.472-.078-.12-.141-.37-.141-.555 0-.276-.116-.336-.65-.338zM32.87 120.061c-.126-.058-.277.09-.342.259-.08.206-.24.243-.696.157l-.593-.112.11.55c.07.357.024.677-.137.923-.295.45-.196.584.43.584.32 0 .502.108.576.34.129.407.38.43.777.07.238-.216.367-.23.666-.069.514.275.745.002.484-.57-.165-.362-.159-.536.027-.883.198-.37.196-.456-.014-.589a1.2 1.2 0 0 0-.548-.158c-.166-.002-.347-.118-.4-.258-.064-.167-.214-.187-.34-.244" style="fill:#cfb38c;fill-opacity:1;stroke-width:3.6" transform="translate(-6.433 -12.184)"/></svg>