<svg xmlns="http://www.w3.org/2000/svg" width="725.614" height="419.157" viewBox="0 0 191.985 110.902"><path d="M41.737 0c-.092 0-.202.137-.27.411-.125.494-.345.535-.778.143-.385-.348-.568-.204-.322.255.1.188.183.578.183.866 0 .31.104.565.254.623.157.06.254.317.254.671 0 .718.297.746.539.052.167-.48.229-.514.753-.415.653.122.678.074.286-.524-.227-.348-.244-.498-.084-.754.278-.446.257-.493-.224-.493-.338 0-.423-.085-.423-.424 0-.274-.075-.411-.168-.411zm31.247.51c-.132.012-.285.157-.408.428-.204.447-.475.48-1.25.154-.41-.172-.388.258.042.805.387.49.427.814.139 1.102-.295.295-.007.48.375.242.49-.306.672-.25.672.205 0 .54.17.964.344.857.077-.048.227-.352.334-.676.17-.516.266-.592.753-.592.547 0 .558-.015.542-.719-.01-.396.019-.834.063-.973.056-.178-.022-.238-.258-.2-.901.14-1.016.112-1.07-.267-.037-.257-.147-.377-.278-.365zm64.314 6.75c-.078.059-.226.21-.396.568-.246.514-.344.582-.718.488-.395-.1-.423-.071-.325.317.06.238.026.475-.076.538-.1.062-.266.268-.368.458-.176.33-.152.342.508.23.68-.114.692-.107.692.378 0 .863.42 1.002.597.197.096-.442.179-.513.52-.448.456.087.53-.176.214-.765-.165-.309-.123-.414.297-.76l.489-.4-.593.051c-.536.047-.598.006-.646-.414-.036-.313-.116-.497-.195-.438zm34.615-5.328c-.063-.011-.138.025-.23.1-.13.109-.24.26-.24.333 0 .073-.265.538-.591 1.033-.582.884-.733 1.331-.45 1.331.079 0 .281-.152.45-.339.41-.453.668-.426.905.094.323.71.496.33.455-.997-.033-1.068-.11-1.523-.299-1.555zM88.276 35.506c-.077-.014-.153.148-.252.498-.19.669-.2.677-.914.619-.818-.066-.813.15.01.576.454.234.494.318.395.845-.117.622.074.767.436.33.255-.307.572-.322 1.01-.048.448.28.57.102.314-.459-.2-.439-.176-.498.416-.995.347-.29.63-.586.63-.656 0-.214-.573-.131-.921.132-.488.37-.752.304-.877-.217-.095-.4-.17-.612-.247-.625zm17.507-23.274c-.162-.016-.37.387-.372.783-.004.522-.252.615-.835.314-.684-.354-.79-.08-.19.494.55.527.523.801-.102 1.086-.58.264-.416.613.288.613.442 0 .587.078.63.339.149.896.475 1.048.64.297.179-.817.226-.89.577-.89.37 0 .456-.328.162-.621-.13-.13-.056-.281.254-.524.548-.431.579-.784.055-.625-.657.2-.697.177-.81-.475-.062-.35-.166-.692-.232-.758a.105.105 0 00-.065-.033zm9.817 19.04c-.068.016-.115.094-.115.246 0 .14-.14.395-.313.568-.431.43-.306 1.438.161 1.29a.876.876 0 01.615.074c.484.282.587.215.472-.307-.062-.282-.031-.539.072-.603.265-.164.216-.429-.08-.429-.142 0-.33-.19-.419-.423-.11-.29-.28-.441-.393-.416zM2.658 31.9c-.153-.066-.378.36-.384.743a1.315 1.315 0 01-.157.579c-.13.205-.216.198-.584-.043-.628-.411-.782-.353-.782.298 0 .473-.07.591-.381.635-.514.073-.485.522.042.645.327.077.436.224.477.644.047.484.1.533.466.44.39-.098.412-.063.412.65 0 .666.092.977.288.977.035 0 .215-.355.401-.79.258-.6.386-.743.536-.593.332.333.612.222.668-.267.047-.402.145-.478.719-.551.893-.114.959-.445.132-.668-.581-.156-.655-.23-.586-.594.07-.368.024-.412-.403-.381-.456.032-.488-.01-.576-.763-.05-.439-.15-.855-.222-.926-.02-.021-.044-.026-.066-.035zm187.735-13.226c-.106.012-.22.165-.316.458-.092.28-.183.533-.202.564-.02.03-.193-.03-.387-.133-.317-.17-.354-.142-.354.264 0 .25-.125.545-.279.658-.312.228-.178.594.218.594.2 0 .232.118.141.531-.11.503-.094.526.312.424.379-.095.443-.044.547.442.065.303.153.611.197.685.127.215.532-.207.59-.612.041-.287.158-.362.52-.337.502.034.646-.375.265-.756-.153-.153-.125-.282.12-.552.25-.276.278-.416.132-.65-.103-.164-.148-.504-.1-.753.095-.502-.132-.596-.465-.194-.28.337-.556.236-.668-.24-.065-.275-.165-.405-.27-.393zM23.8 12.357c-.045-.06-.134.089-.134.257 0 .176-.1.456-.22.622-.201.274-.242.277-.445.032-.336-.404-.72-.338-.658.113.044.315-.042.395-.504.465-.625.095-.808.392-.29.47 1.086.164 1.144.204 1.043.712-.09.446-.059.486.354.458.334-.023.469.057.512.307.16.92.44.956.631.083.113-.512.316-.647.508-.337.057.093.218.17.356.17.195 0 .227-.132.143-.582-.105-.56-.09-.582.458-.634.767-.074.72-.38-.067-.446-.667-.055-.748-.182-.46-.72.203-.38-.135-.47-.478-.127-.247.247-.414.098-.44-.393-.015-.287-.233-.35-.309-.45zm112.528 17.945c-.133-.009-.296.158-.417.504-.097.28-.296.509-.44.509-.195 0-.252.151-.22.585.036.499.094.572.394.497a.585.585 0 01.57.177c.323.389.47.325.553-.24.04-.276.012-.601-.063-.72-.075-.118-.138-.463-.14-.765-.002-.354-.104-.538-.237-.547zm-36.031 31.399c-.115.011-.258.217-.371.61-.144.502-.195.532-.723.434-.613-.116-.663-.057-.386.46.134.25.125.407-.034.599-.178.214-.166.287.067.417s.249.231.091.577c-.254.558-.055.72.392.318.355-.32.362-.319.614.057.386.579.774.501.636-.127-.107-.49-.09-.507.485-.507.737 0 .91-.237.455-.627-.19-.162-.347-.422-.347-.576 0-.155-.152-.322-.339-.37-.26-.069-.339-.231-.339-.711 0-.383-.316-.566-.201-.554zm88.935-2.584c-.145-.02-.267.078-.267.306 0 .174-.143.497-.318.72-.251.318-.3.59-.233 1.292.093.971.342 1.135.768.507.224-.33.305-.353.61-.169.592.355.696.25.696-.708 0-.78-.053-.937-.348-1.03-.191-.061-.418-.294-.503-.52-.092-.24-.26-.378-.405-.398zM66.462 34.397c0-.165-.337.234-.459.589-.25.728-.324.776-.844.54-.698-.319-.861.015-.346.708.418.564.435.735.154 1.642-.153.493.188.506.697.028l.375-.352.122.564c.218 1.008.43 1.023.833.055.229-.547.26-.563.753-.377.7.264.834.055.367-.577-.378-.51-.381-.546-.108-1.118l.282-.592-.602.113c-.636.119-.64.114-.843-.803-.07-.316-.38-.254-.38-.42zm98.372-11.966c.122.009-.265.253-.392.63-.233.691-.472.795-1.016.438-.458-.3-.93-.356-.93-.11 0 .09.27.368.6.62.349.266.562.554.508.686-.05.125-.14.341-.195.48-.067.165.041.305.317.41.333.127.403.249.337.592-.112.588.091 1.325.343 1.243.113-.037.29-.405.393-.817.187-.747.19-.749.89-.704.828.054.958-.292.278-.738-.519-.34-.53-.52-.058-.903.4-.324.294-.737-.17-.66-.455.074-.705-.184-.705-.731 0-.335-.322-.445-.2-.436zM32.517 35.734c-.134-.008-.294.154-.433.49-.195.471-.256.499-.867.401-.69-.11-.856.072-.404.447.289.24.337.774.085.93-.33.204-.163.403.38.456.444.042.56.135.601.476.124 1.035.42 1.136.716.243.152-.462.266-.577.48-.489.153.064.424.157.602.208.335.095.334.084-.012-1.006-.057-.18.069-.385.35-.57.56-.367.602-.834.057-.65-.21.07-.57.132-.804.138-.356.008-.431-.077-.476-.54-.033-.347-.141-.526-.275-.534zm128.864 5.45c-.106 0-.221.194-.317.597-.093.392-.268.66-.465.712-.392.103-.39.287.014 1.141.176.37.28.736.234.812-.124.2.072.63.287.63.1 0 .262-.228.36-.508.129-.37.285-.508.573-.508.593 0 .62-.21.12-.945-.248-.365-.493-.952-.543-1.305-.059-.411-.155-.625-.262-.625zM62.307 61.856c0-.107-.249.156-.419.562-.27.648-.45.728-.772.34-.296-.358-.738-.329-.633.042.223.79.218.799-.455.887-1.123.147-.839.67.368.677.471.002.487.33.042.895-.532.677-.417.881.268.477.732-.432.918-.347.918.419 0 .837.436.765.574-.095.123-.775.46-.89.75-.255.282.62.6.539.5-.127-.113-.733-.006-.972.434-.975.465-.004.907-.276.732-.451-.073-.073-.434-.125-.8-.116-.367.01-.666-.016-.666-.057 0-.04.194-.329.431-.64.501-.657.313-.916-.31-.425-.642.505-.799.421-.799-.426 0-.456-.163-.624-.163-.732zm66.118-4.062c.082-.107-.215.218-.153.596.08.49.026.625-.332.86-.392.257-.403.301-.156.575.148.163.268.499.268.748 0 .507.255.58.683.193.26-.236.313-.22.568.17.385.588.612.537.612-.137 0-.44.094-.609.423-.758.475-.217.55-.502.17-.647-.191-.074-.227-.258-.147-.757.083-.522.052-.66-.151-.66-.141 0-.381.19-.534.423-.361.552-.522.535-.778-.083-.152-.368-.556-.416-.473-.523zm-109.46-.648a.606.606 0 00-.252.155c-.167.15-.42.222-.58.161-.233-.09-.274-.01-.24.449.025.323-.044.586-.165.626-.334.112-.238.549.121.549.181 0 .376.076.433.17.153.247.52.206.762-.085.116-.14.404-.254.64-.254.422 0 .423-.006.113-.348-.26-.287-.278-.406-.11-.675.275-.44.26-.501-.124-.501-.181 0-.38-.08-.44-.18a.137.137 0 00-.159-.067zM150.377 72.7c-.19-.063-.234.17-.159.64.065.407.034.7-.083.773-.332.205-.199.564.25.677.405.101.429.16.324.78-.095.56-.066.67.172.67.156 0 .324-.152.373-.338.1-.387.354-.424.972-.142.58.264.729.065.387-.514-.288-.487-.15-.868.312-.868.11 0 .299-.12.42-.267.285-.343-.017-.564-.614-.45-.35.067-.413.014-.413-.354 0-.599-.333-.751-.686-.315-.293.362-.294.362-.72.027-.242-.19-.417-.298-.535-.32zm-46.834 33.734c-.072-.072-.218.095-.259.212-.04.116-.16.44-.263.72l-.188.508-.393-.491-.394-.49-.12 1.12c-.066.617-.225 1.209-.355 1.316-.129.107-.234.306-.234.441 0 .186.124.22.507.136.434-.096.509-.062.509.23 0 .521.35.627.67.202l.286-.379.305.466c.264.403.325.427.46.187.085-.153.133-.488.106-.746-.042-.4.02-.476.417-.522.55-.063.6-.285.124-.54-.27-.145-.305-.25-.169-.503.255-.477.222-.518-.38-.47-.548.042-.549.041-.495-.677.033-.442-.053-.639-.134-.72zm84.955-16.08c-.127-.003-.33.13-.556.399-.523.62-.726.634-1.165.076-.434-.551-.55-.425-.49.539.039.624-.02.82-.305 1.02-.464.325-.445.532.07.767.345.157.424.314.424.843 0 .749.669 1.092.669.317.413-.294.505-.305.788-.09.61.46.793.323.67-.502-.098-.648-.064-.786.235-.972.472-.295.437-.618-.087-.818-.326-.124-.411-.25-.339-.503l.187-.663c.077-.272.026-.41-.101-.413zm-63.032-5.864l-.385.483c-.281.353-.483.455-.751.385-.533-.14-.63.174-.196.637.325.345.352.472.196.918-.142.409-.133.52.044.52.124 0 .32-.115.435-.255.29-.349.567-.318.947.104l.324.36.05-.685c.038-.504.16-.755.466-.955.574-.376.518-.602-.15-.602-.45 0-.61-.094-.774-.455zM1.73 79.8c.15 0-.317.303-.46.797-.196.67-.308.813-.683.857-.556.067-.56.15-.027.569.4.314.41.356.17.82-.405.782-.282.87.552.391.487-.28.699-.255 1.262.149.425.305.566.035.327-.625-.179-.496-.168-.645.071-1.01.299-.456.252-.513-.517-.635-.257-.04-.352-.206-.392-.687-.038-.454-.452-.625-.303-.625zm34.978-.793c-.034-.006-.066.049-.106.153-.573 1.499-.553 1.473-1.092 1.355-.58-.127-.651.053-.259.652.223.34.224.425.006.713-.416.55-.314.744.37.704.512-.03.639.026.687.302.11.633.196.756.456.656.144-.055.262-.263.263-.463.004-.63.243-.833.823-.706.435.096.529.063.529-.18 0-.164-.12-.43-.268-.593-.207-.228-.225-.373-.084-.637.26-.484.245-.506-.368-.565-.497-.048-.568-.126-.742-.814-.098-.39-.236-.524-.215-.577zm37.468 6.742c-.105.019-.224.157-.34.41-.16.354-.273.407-.645.314-.419-.105-.443-.08-.36.358.058.303-.03.676-.25 1.047-.398.675-.302.865.301.59.593-.27.716-.248.84.143.145.457.556.43.624-.041.032-.224.192-.401.392-.433.695-.11.831-.202.62-.413-.108-.108-.197-.417-.197-.687 0-.34-.098-.516-.322-.575a.632.632 0 01-.409-.407c-.058-.223-.254-.199-.254-.306zm93.632 19.163c.357-.008-.731.095-.83.213-.098.119-.32.171-.492.116-.257-.081-.315-.013-.314.376.001.263.05.762.107 1.11.093.564.149.622.506.533.328-.083.401-.035.401.256 0 .43.127.448.535.08.24-.218.358-.235.548-.077.345.286.488-.037.25-.56-.152-.332-.148-.488.012-.682.122-.148.15-.343.067-.472-.078-.12-.142-.37-.142-.555 0-.276-.115-.335-.649-.338zm-141.372 2.964c-.126-.058-.277.09-.342.26-.08.205-.24.242-.695.156l-.594-.111.11.548c.071.359.025.678-.137.924-.294.45-.196.584.43.584.32 0 .503.108.576.34.13.407.38.43.777.07.239-.215.367-.229.667-.069.514.275.745.002.484-.57-.165-.361-.16-.536.026-.883.199-.37.197-.456-.014-.589a1.23 1.23 0 00-.548-.158c-.166-.002-.346-.118-.4-.257-.064-.168-.214-.188-.34-.245z" fill="#cfb38c"/></svg>